<svg width="64" height="64" viewBox="0 0 64 64" fill="none" xmlns="http://www.w3.org/2000/svg">
  <defs>
    <linearGradient id="koraGrad" x1="8" y1="8" x2="56" y2="56" gradientUnits="userSpaceOnUse">
      <stop stop-color="#FF4F7A" />
      <stop offset="0.55" stop-color="#F96E46" />
      <stop offset="1" stop-color="#D64062" />
    </linearGradient>
  </defs>
  <rect x="4" y="4" width="56" height="56" rx="18" fill="url(#koraGrad)" />
  <path d="M32 45.5L19.8 33.3C15.6 29.1 15.6 22.4 19.8 18.2C24 14 30.7 14 34.9 18.2L36 19.3L37.1 18.2C41.3 14 48 14 52.2 18.2C56.4 22.4 56.4 29.1 52.2 33.3L40 45.5C37.8 47.7 34.2 47.7 32 45.5Z" fill="white" fill-opacity="0.92" transform="translate(-4 -4) scale(0.95) translate(6 6)" />
  <path d="M26.2 29.9C28.8 28.9 30.8 26.9 31.8 24.3C32.2 23.2 33.8 23.2 34.2 24.3C35.2 26.9 37.2 28.9 39.8 29.9C40.9 30.3 40.9 31.9 39.8 32.3C37.2 33.3 35.2 35.3 34.2 37.9C33.8 39 32.2 39 31.8 37.9C30.8 35.3 28.8 33.3 26.2 32.3C25.1 31.9 25.1 30.3 26.2 29.9Z" fill="#FFD89A" />
</svg>
